# xmcd
#
# Track frame offsets:
#	150
#	4722
#	23030
#	37878
#	51474
#	66946
#	76746
#	92534
#	98645
#	117543
#	135353
#	153429
#	171655
#	184375
#	199953
#
# Disc length: 2837 seconds
#
# Revision: 0
# Processed by: cddbd v1.5.2PL0 Copyright (c) Steve Scherf et al.
# Submitted via: EZCDAudioConverter 1.3.4.1
#
DISCID=c40b130f
DTITLE=Rjd2 - The Third Hand
DYEAR=1900
DGENRE=
TTITLE0=Intro
TTITLE1=You Never Had It So Good
TTITLE2=Have Mercy
TTITLE3=Reality
TTITLE4=Work It Out
TTITLE5=Laws Of The Gods
TTITLE6=Get It
TTITLE7=Someday
TTITLE8=The Bad Penny
TTITLE9=Beyond The Beyond
TTITLE10=Sweet Piece
TTITLE11=Rules For Normal Living
TTITLE12=Paper Bubbles
TTITLE13=Just When
TTITLE14=The Evening Gospel
EXTD=
EXTT0=
EXTT1=
EXTT2=
EXTT3=
EXTT4=
EXTT5=
EXTT6=
EXTT7=
EXTT8=
EXTT9=
EXTT10=
EXTT11=
EXTT12=
EXTT13=
EXTT14=
PLAYORDER=
